<svg width="58" height="41" viewBox="0 0 58 41" fill="none" xmlns="http://www.w3.org/2000/svg">
<path d="M45.8455 17.7175L1.84276 16.7812C1.5229 16.7744 1.21609 16.9201 1.03248 17.1821C-0.42068 19.2557 -0.2677 20.5034 1.03961 22.3661C1.2204 22.6237 1.51885 22.7704 1.83355 22.7704H45.9802C46.8624 22.7704 47.3124 23.8295 46.7 24.4645L35.1605 36.4314C34.9535 36.6461 34.8517 36.9441 34.892 37.2395C35.3181 40.3612 36.2559 41.1567 39.0871 40.3438C39.2487 40.2974 39.3951 40.2072 39.5122 40.0866L56.3337 22.7704C58.3586 21.0127 58.3264 19.9158 56.3337 17.7704L39.5374 0.480149C39.4044 0.343186 39.2345 0.246135 39.0478 0.205943C35.9923 -0.451931 35.0144 0.390293 34.8497 3.83883C34.8366 4.1133 34.9437 4.38048 35.138 4.57478L46.5738 16.0106C47.2111 16.6478 46.7465 17.7366 45.8455 17.7175Z" fill="#362F8B"/>
</svg>
